<svg width="40" height="40" viewBox="0 0 40 40" fill="none" xmlns="http://www.w3.org/2000/svg">
<g clip-path="url(#clip0_64_8)">
<path d="M20 -1.08279e-05C24.6289 -0.00133397 29.115 1.60248 32.6939 4.53813C36.2728 7.47378 38.723 11.5596 39.627 16.0994C40.531 20.6391 39.8329 25.3519 37.6515 29.4345C35.4701 33.5172 31.9406 36.7172 27.6643 38.4891C23.388 40.2611 18.6296 40.4954 14.1999 39.1521C9.7702 37.8088 5.94337 34.971 3.3715 31.1224C0.799641 27.2737 -0.358105 22.6523 0.0955526 18.0457C0.54921 13.4391 2.5862 9.13239 5.85941 5.85936C7.71381 3.99878 9.91782 2.52325 12.3446 1.51766C14.7714 0.51208 17.3731 -0.00370364 20 -1.08279e-05ZM17.1061 19.0169C18.0567 18.3659 18.5352 17.5163 18.4538 15.5729V10.5762C18.4538 9.87955 17.1778 9.79491 17.1159 10.5762L17.0671 14.6289C17.0671 14.78 17.0071 14.9249 16.9002 15.0317C16.7934 15.1385 16.6485 15.1986 16.4974 15.1986C16.3463 15.1986 16.2014 15.1385 16.0946 15.0317C15.9878 14.9249 15.9278 14.78 15.9278 14.6289L15.9766 10.4362C15.9766 9.68749 14.7494 9.61262 14.7364 10.4362C14.7364 11.6016 14.6875 13.4668 14.6875 14.6289C14.6991 14.6997 14.6952 14.7722 14.676 14.8413C14.6568 14.9104 14.6228 14.9746 14.5763 15.0292C14.5299 15.0839 14.4721 15.1278 14.407 15.158C14.3419 15.1881 14.271 15.2037 14.1992 15.2037C14.1275 15.2037 14.0566 15.1881 13.9915 15.158C13.9264 15.1278 13.8686 15.0839 13.8222 15.0292C13.7757 14.9746 13.7417 14.9104 13.7225 14.8413C13.7033 14.7722 13.6994 14.6997 13.711 14.6289L13.7598 10.4655C13.7496 10.3468 13.7083 10.2329 13.6402 10.1351C13.5722 10.0374 13.4796 9.95924 13.3718 9.90848C13.2641 9.85773 13.1449 9.83616 13.0262 9.84594C12.9074 9.85571 12.7934 9.89649 12.6953 9.96418C12.2461 10.2506 12.3373 10.8268 12.3177 11.3151L12.1615 16.097C12.1843 17.487 12.5489 18.6165 13.6394 19.0983C13.8485 19.1814 14.0672 19.2383 14.2904 19.2676L13.9226 29.0527C13.9182 29.2148 13.9462 29.3762 14.0047 29.5274C14.0633 29.6786 14.1513 29.8166 14.2636 29.9335C14.376 30.0504 14.5105 30.1439 14.6592 30.2083C14.808 30.2728 14.9681 30.3071 15.1302 30.3092H15.28C15.4621 30.3063 15.6418 30.2673 15.8088 30.1946C15.9757 30.1219 16.1267 30.0168 16.2528 29.8855C16.379 29.7542 16.478 29.5992 16.544 29.4294C16.61 29.2597 16.6417 29.0785 16.6374 28.8965L16.3119 19.2643C16.5913 19.2347 16.8623 19.1507 17.1094 19.0169H17.1061ZM22.9655 28.7012L22.9492 20.1042C19.2741 17.9818 20.446 9.80468 24.1211 9.85025C28.5873 9.90233 29.1179 19.0657 25.2767 20.0716L25.5599 28.7435C25.6153 30.7389 22.9558 30.9245 22.9558 28.7012H22.9655ZM32.321 7.67903C29.4685 4.83172 25.7171 3.06147 21.7058 2.66988C17.6945 2.27829 13.6715 3.28958 10.3222 5.53146C6.97288 7.77334 4.50447 11.1071 3.33748 14.9648C2.17049 18.8226 2.37711 22.9656 3.92216 26.688C5.4672 30.4105 8.25507 33.4821 11.8108 35.3796C15.3666 37.2771 19.4702 37.8831 23.4226 37.0943C27.3751 36.3055 30.9318 34.1708 33.4868 31.0538C36.0418 27.9368 37.4371 24.0304 37.4349 20C37.4365 17.7106 36.9856 15.4435 36.1079 13.329C35.2303 11.2145 33.9433 9.29438 32.321 7.67903Z" fill="#FCD063"/>
</g>
<defs>
<clipPath id="clip0_64_8">
<rect width="40" height="40" fill="white"/>
</clipPath>
</defs>
</svg>
