<svg width="740" height="496" viewBox="0 0 740 496" fill="none" xmlns="http://www.w3.org/2000/svg">
<g clip-path="url(#clip0_28_191)">
<path d="M740 263.616C740 363.942 676.412 449.424 587.347 481.951C573.798 486.909 559.812 490.58 545.575 492.915C506.406 499.339 466.248 495.692 428.878 482.317C339.249 450.058 275.196 364.288 275.239 263.567C275.239 135.277 379.282 31.2327 507.619 31.2327C556.122 31.1621 603.421 46.3364 642.83 74.6109C701.664 116.764 740 185.711 740 263.616Z" fill="#E5E5E5"/>
<path d="M587.347 481.951C573.798 486.909 559.812 490.58 545.575 492.916C506.406 499.34 466.248 495.693 428.878 482.318L439.609 439.256L440.257 436.672L462.157 436.756L572.179 437.151L573.587 441.313L587.347 481.951Z" fill="#2F2E41"/>
<path d="M100.928 215.799C106.943 215.799 111.819 210.923 111.819 204.907C111.819 198.892 106.943 194.016 100.928 194.016C94.9126 194.016 90.0362 198.892 90.0362 204.907C90.0362 210.923 94.9126 215.799 100.928 215.799Z" fill="#E6E6E6"/>
<path d="M287.032 371.667C287.799 372.455 288.503 373.303 289.138 374.202L387.8 371.788L399.31 350.755L433.322 363.977L416.563 403.191C415.209 406.359 412.864 409.002 409.88 410.724C406.896 412.446 403.435 413.154 400.014 412.741L288.542 399.274C285.913 402.603 282.332 405.053 278.277 406.297C274.221 407.541 269.883 407.521 265.839 406.24C261.795 404.958 258.237 402.476 255.639 399.123C253.04 395.77 251.524 391.705 251.291 387.469C251.059 383.234 252.122 379.028 254.339 375.411C256.555 371.794 259.82 368.937 263.7 367.221C267.579 365.505 271.889 365.011 276.056 365.804C280.224 366.598 284.051 368.641 287.028 371.662L287.032 371.667Z" fill="#9F616A"/>
<path d="M419.827 251.566L465.999 236.434L479.56 217.835L545.554 221.741L555.243 243.444L590.432 260.072L585.024 360.507L575.772 454.501C528.199 429.866 439.415 448.647 438.637 448.953L419.827 251.566Z" fill="#FFF3E0"/>
<path d="M429.697 387.51L382.732 368.72L382.932 367.884C383.134 367.039 403.123 283.51 405.777 270.086C408.541 256.102 418.643 252.235 419.072 252.078L419.385 251.962L437.971 257.62L446.134 321.758L429.697 387.51Z" fill="#FFF3E0"/>
<path d="M531.103 450.369C532.204 450.343 533.305 450.403 534.397 450.55L599.708 376.559L592.111 353.824L624.932 337.873L642.293 376.824C643.696 379.97 644.04 383.487 643.274 386.846C642.508 390.205 640.673 393.224 638.044 395.452L552.38 468.035C553.033 472.226 552.394 476.517 550.549 480.337C548.703 484.156 545.739 487.323 542.049 489.417C538.36 491.511 534.121 492.431 529.895 492.057C525.67 491.683 521.659 490.031 518.395 487.321C515.132 484.611 512.77 480.972 511.625 476.887C510.48 472.803 510.606 468.467 511.985 464.455C513.365 460.444 515.933 456.947 519.348 454.431C522.763 451.915 526.863 450.498 531.103 450.369V450.369Z" fill="#9F616A"/>
<path d="M594.495 383.762L567.25 319.676L577.877 275.037L589.326 260.572C590.164 260.214 591.068 260.033 591.98 260.041C592.892 260.05 593.792 260.247 594.624 260.621C598.849 262.321 602.441 267.53 605.311 276.102L630.844 348.831L594.495 383.762Z" fill="#FFF3E0"/>
<path d="M453.144 194.089V145.774C453.116 137.272 454.763 128.848 457.99 120.982C461.218 113.116 465.963 105.964 471.955 99.9318C477.947 93.9001 485.068 89.1076 492.912 85.828C500.756 82.5484 509.169 80.8459 517.671 80.8177C526.173 80.7896 534.597 82.4363 542.462 85.6638C550.328 88.8914 557.481 93.6366 563.512 99.6285C569.544 105.62 574.337 112.742 577.616 120.586C580.896 128.43 582.598 136.843 582.626 145.345C582.627 145.488 582.627 145.631 582.626 145.774V194.089C582.624 196.394 581.707 198.605 580.076 200.235C578.446 201.866 576.235 202.783 573.93 202.785H461.841C459.535 202.783 457.325 201.866 455.694 200.235C454.064 198.605 453.147 196.394 453.144 194.089V194.089Z" fill="#2F2E41"/>
<path d="M504.581 201.66C530.796 201.66 552.047 180.408 552.047 154.194C552.047 127.979 530.796 106.728 504.581 106.728C478.367 106.728 457.116 127.979 457.116 154.194C457.116 180.408 478.367 201.66 504.581 201.66Z" fill="#9F616A"/>
<path d="M437.828 149.639C437.844 136.061 443.244 123.043 452.845 113.442C462.446 103.841 475.464 98.4406 489.042 98.4253H498.705C512.283 98.4406 525.3 103.841 534.901 113.442C544.502 123.044 549.902 136.061 549.918 149.639V150.605H529.496L522.531 131.099L521.138 150.605H510.585L507.072 140.765L506.367 150.605H437.828V149.639Z" fill="#2F2E41"/>
<path d="M499.911 208.219C498.952 206.92 498.379 205.378 498.259 203.768C498.138 202.159 498.475 200.548 499.23 199.122C509.469 179.645 523.806 143.656 504.777 121.462L503.412 119.869H558.659V202.815L508.471 211.671C507.963 211.761 507.449 211.806 506.933 211.807C505.563 211.807 504.212 211.482 502.992 210.858C501.772 210.235 500.717 209.331 499.914 208.221L499.911 208.219Z" fill="#2F2E41"/>
<path d="M101.022 209.083C110.563 191.597 133.421 180.523 152.119 190.505C160.536 194.997 167.226 202.943 169.35 212.335C171.815 223.245 166.621 233.648 161.26 242.813C158.351 247.789 155.162 252.662 152.754 257.91C150.26 263.344 148.478 269.625 150.355 275.537C152.045 280.862 156.283 284.736 160.924 287.583C166.045 290.606 171.493 293.04 177.163 294.836C188.833 298.718 201.144 300.31 213.418 299.527C219.518 299.113 225.567 298.135 231.487 296.606C237.785 295 243.964 292.965 250.273 291.395C260.804 288.779 272.813 287.478 282.8 292.733C292.502 297.84 296.844 308.52 298.187 318.911C300.667 338.097 293.059 358.007 279.324 371.443C272.735 377.89 264.442 383.215 255.41 385.394C247.53 387.295 237.411 387.174 231.139 381.282C224.141 374.707 225.787 364.164 231.346 357.227C238.44 348.376 250.459 346.25 261.185 346.035C273.385 345.79 285.575 347.606 297.768 346.477C303.72 346.014 309.56 344.605 315.069 342.304C319.911 340.174 324.329 337.185 328.107 333.481C335.634 326.167 340.712 316.424 343.236 306.294C346.276 294.111 345.613 281.307 343.254 269.071C341.996 262.761 340.377 256.529 338.403 250.405C337.589 247.82 333.508 248.926 334.329 251.528C341.596 274.572 345.648 301.218 331.607 322.613C325.797 331.687 316.745 338.202 306.297 340.833C294.145 343.853 281.393 342.36 269.039 341.911C257.292 341.483 244.393 341.945 234.323 348.787C226.062 354.398 220.284 365.073 222.781 375.15C225.189 384.867 234.528 389.797 243.868 390.556C253.668 391.354 263.312 388.065 271.542 382.922C288.663 372.223 300.047 353.407 302.429 333.458C303.671 323.063 302.408 311.867 297.694 302.432C295.21 297.324 291.344 293.016 286.535 289.995C281.739 287.055 276.2 285.608 270.637 285.096C257.998 283.932 245.855 288.271 233.866 291.591C227.741 293.368 221.463 294.566 215.115 295.17C208.953 295.681 202.756 295.58 196.614 294.869C190.52 294.15 184.514 292.817 178.688 290.89C172.979 289.125 167.512 286.654 162.416 283.533C157.92 280.658 154.031 276.54 153.81 270.928C153.57 264.843 156.638 259.151 159.556 254.021C165.321 243.887 172.443 233.975 173.946 222.112C175.263 211.734 171.087 201.506 163.876 194.104C160.262 190.347 155.912 187.377 151.097 185.379C146.282 183.381 141.106 182.4 135.894 182.495C125.195 182.801 114.952 187.454 107.082 194.599C103.18 198.146 99.8952 202.318 97.3647 206.944C96.0612 209.332 99.7082 211.466 101.013 209.076L101.022 209.083Z" fill="#3F3D56"/>
</g>
<defs>
<clipPath id="clip0_28_191">
<rect width="740" height="496" fill="white"/>
</clipPath>
</defs>
</svg>
