<svg width="22" height="21" viewBox="0 0 22 21" fill="none" xmlns="http://www.w3.org/2000/svg">
<g clip-path="url(#clip0_1_7)">
<path d="M0.726891 1.55679C0.53233 1.55258 0.347191 1.47229 0.211268 1.3332C0.0753446 1.1941 -0.000512082 1.0073 2.60206e-06 0.812938C0.00322641 0.621403 0.080844 0.438614 0.216469 0.303159C0.352095 0.167705 0.535114 0.0901851 0.726891 0.0869654H1.80111C2.42568 0.0768671 3.04111 0.237642 3.58073 0.551874C4.55469 1.16877 4.72836 2.05031 4.97722 3.0445H21.2695C21.4622 3.04497 21.6468 3.12161 21.783 3.25765C21.9192 3.3937 21.9959 3.57808 21.9964 3.77047C21.9934 3.84627 21.9808 3.92137 21.9588 3.99398L20.0628 11.6399C20.0268 11.8016 19.9357 11.9458 19.8051 12.0479C19.6745 12.1499 19.5125 12.2036 19.3467 12.1996H7.43181C7.6932 13.167 7.95459 13.6873 8.30729 13.9287C8.73698 14.213 9.48893 14.2273 10.7297 14.213H19.1676C19.3604 14.213 19.5453 14.2895 19.6816 14.4257C19.818 14.5618 19.8945 14.7465 19.8945 14.939C19.8945 15.1315 19.818 15.3162 19.6816 15.4523C19.5453 15.5885 19.3604 15.665 19.1676 15.665H10.7422C9.19711 15.6829 8.24642 15.6453 7.48373 15.1446C6.72103 14.644 6.29134 13.7302 5.88135 12.1048L3.39095 2.67257C3.39095 2.65469 3.39095 2.65469 3.37126 2.63502C3.33856 2.46544 3.27232 2.30407 3.1764 2.16038C3.08049 2.01669 2.95683 1.89355 2.81267 1.79819C2.50125 1.62371 2.14704 1.54007 1.79037 1.55679H0.726891ZM15.1071 6.02706C15.1312 5.91067 15.1948 5.80613 15.2871 5.73108C15.3794 5.65603 15.4948 5.61505 15.6138 5.61505C15.7328 5.61505 15.8482 5.65603 15.9405 5.73108C16.0328 5.80613 16.0963 5.91067 16.1204 6.02706V8.83618C16.0963 8.95258 16.0328 9.05711 15.9405 9.13216C15.8482 9.20721 15.7328 9.24819 15.6138 9.24819C15.4948 9.24819 15.3794 9.20721 15.2871 9.13216C15.1948 9.05711 15.1312 8.95258 15.1071 8.83618V6.03064V6.02706ZM12.0724 6.02706C12.0957 5.9097 12.159 5.80403 12.2516 5.72809C12.3441 5.65215 12.4602 5.61064 12.58 5.61064C12.6998 5.61064 12.8159 5.65215 12.9084 5.72809C13.001 5.80403 13.0643 5.9097 13.0876 6.02706V8.83618C13.0643 8.95355 13.001 9.05921 12.9084 9.13515C12.8159 9.2111 12.6998 9.25261 12.58 9.25261C12.4602 9.25261 12.3441 9.2111 12.2516 9.13515C12.159 9.05921 12.0957 8.95355 12.0724 8.83618V6.03064V6.02706ZM9.03955 6.02706C9.06368 5.91067 9.12725 5.80613 9.21954 5.73108C9.31183 5.65603 9.42721 5.61505 9.54623 5.61505C9.66524 5.61505 9.78062 5.65603 9.87291 5.73108C9.96521 5.80613 10.0288 5.91067 10.0529 6.02706V8.83618C10.0288 8.95258 9.96521 9.05711 9.87291 9.13216C9.78062 9.20721 9.66524 9.24819 9.54623 9.24819C9.42721 9.24819 9.31183 9.20721 9.21954 9.13216C9.12725 9.05711 9.06368 8.95258 9.03955 8.83618V6.03064V6.02706ZM16.509 4.49287H5.38363L7.04151 10.7262H18.7988L20.3457 4.49287H16.509ZM16.9888 16.5107C17.3429 16.5107 17.689 16.6156 17.9834 16.8121C18.2779 17.0086 18.5073 17.2878 18.6429 17.6146C18.7784 17.9413 18.8138 18.3008 18.7447 18.6477C18.6757 18.9946 18.5051 19.3132 18.2548 19.5632C18.0044 19.8133 17.6854 19.9836 17.3381 20.0526C16.9908 20.1216 16.6308 20.0862 16.3036 19.9509C15.9765 19.8155 15.6969 19.5863 15.5001 19.2923C15.3034 18.9982 15.1984 18.6525 15.1984 18.2989C15.1984 17.8246 15.387 17.3698 15.7228 17.0345C16.0586 16.6991 16.5139 16.5107 16.9888 16.5107ZM9.14698 16.5107C9.50108 16.5107 9.84722 16.6156 10.1416 16.8121C10.4361 17.0086 10.6655 17.2878 10.8011 17.6146C10.9366 17.9413 10.972 18.3008 10.9029 18.6477C10.8339 18.9946 10.6633 19.3132 10.413 19.5632C10.1626 19.8133 9.84355 19.9836 9.49626 20.0526C9.14896 20.1216 8.78898 20.0862 8.46183 19.9509C8.13469 19.8155 7.85507 19.5863 7.65834 19.2923C7.46161 18.9982 7.35661 18.6525 7.35661 18.2989C7.35661 17.8246 7.54524 17.3698 7.881 17.0345C8.21675 16.6991 8.67214 16.5107 9.14698 16.5107Z" fill="#FFAD23"/>
</g>
<defs>
<clipPath id="clip0_1_7">
<rect width="22" height="20" fill="white" transform="translate(0 0.0879517)"/>
</clipPath>
</defs>
</svg>
