<svg width="25" height="27" viewBox="0 0 25 27" fill="none" xmlns="http://www.w3.org/2000/svg">
<g clip-path="url(#clip0_9_232)">
<path d="M6.81559 1.02116H0.785319V7.03968H6.81763L6.81559 1.02116ZM7.54801 0H24.2126C24.3083 0 24.3998 0.0238095 24.4832 0.0714286C24.5687 0.119048 24.648 0.187831 24.7131 0.272487L24.7172 0.277778C24.7823 0.362434 24.8352 0.465608 24.8698 0.57672C24.9044 0.685185 24.9247 0.804233 24.9247 0.928571V7.13757C24.9247 7.2619 24.9064 7.38095 24.8698 7.49206C24.8332 7.60582 24.7803 7.70635 24.7152 7.79365L24.707 7.80159C24.6419 7.8836 24.5667 7.94974 24.4832 7.99471C24.3998 8.03968 24.3083 8.06614 24.2126 8.06614H17.5069C17.4764 8.06614 17.454 8.03439 17.454 7.99735V1.02116H14.0483V2.84656L16.5507 6.54762C16.6219 6.65344 16.6545 6.78571 16.6484 6.91799C16.6423 7.04762 16.5975 7.1746 16.5161 7.26984L16.512 7.27249C16.4754 7.31217 16.4368 7.34392 16.394 7.36243C16.3513 7.3836 16.3045 7.39418 16.2598 7.39418H8.74227C8.63444 7.39418 8.53475 7.33598 8.46558 7.24339C8.39437 7.15079 8.34961 7.02381 8.34961 6.8836C8.34961 6.80952 8.36182 6.74074 8.3842 6.67725C8.40658 6.61111 8.43913 6.55291 8.47982 6.50529L11.0555 2.84392V1.02116H7.60295V7.98942C7.60295 8.0291 7.57853 8.0582 7.55005 8.0582H0.712077C0.616455 8.0582 0.524902 8.03439 0.441488 7.98677C0.354004 7.93915 0.276693 7.87037 0.209554 7.78571C0.14445 7.70106 0.0915527 7.59788 0.0549316 7.48413C0.0183105 7.37831 0 7.25926 0 7.13492V0.925926C0 0.801587 0.0183105 0.68254 0.0549316 0.571429C0.0895182 0.457672 0.142415 0.357143 0.209554 0.272487C0.211589 0.267196 0.213623 0.26455 0.215658 0.26455C0.280762 0.18254 0.356038 0.116402 0.439453 0.0714286C0.524902 0.0238095 0.616455 0 0.712077 0H7.54801ZM0.712077 13.8439H24.2879C24.3835 13.8439 24.4751 13.8704 24.5585 13.9153C24.646 13.963 24.7233 14.0317 24.7904 14.1164L24.7925 14.119C24.8576 14.2037 24.9084 14.3042 24.9451 14.4153C24.9797 14.5238 25 14.6429 25 14.7698V26.0556C25 26.1799 24.9797 26.2989 24.9451 26.4074C24.9105 26.5159 24.8596 26.6138 24.7986 26.6984C24.7966 26.7011 24.7945 26.7063 24.7925 26.709L24.7904 26.7116C24.7253 26.7963 24.648 26.8651 24.5605 26.9101C24.4771 26.955 24.3856 26.9815 24.29 26.9815H17.9016C17.8853 26.9868 17.8691 26.9921 17.8507 26.9974C17.8304 27.0026 17.8101 27.0026 17.7897 27.0026C17.7694 27.0026 17.749 27 17.7287 26.9974C17.7104 26.9947 17.6941 26.9894 17.6778 26.9815H7.32218C7.30591 26.9868 7.28963 26.9921 7.27132 26.9974C7.25098 27.0026 7.23063 27.0026 7.21029 27.0026C7.18994 27.0026 7.1696 27 7.14925 26.9974C7.13094 26.9947 7.11466 26.9894 7.09839 26.9815H0.712077C0.616455 26.9815 0.524902 26.9577 0.441488 26.9101C0.358073 26.8651 0.280762 26.7989 0.217692 26.7169C0.213623 26.7143 0.211589 26.7116 0.209554 26.7063C0.14445 26.6217 0.0915527 26.5185 0.0549316 26.4074C0.0183105 26.2989 0 26.1799 0 26.0556V14.7698C0 14.6455 0.0183105 14.5265 0.0549316 14.4153C0.0915527 14.3016 0.14445 14.2011 0.209554 14.1138C0.211589 14.1111 0.213623 14.1085 0.217692 14.1058C0.282796 14.0238 0.358073 13.9577 0.441488 13.9127C0.524902 13.8677 0.616455 13.8439 0.712077 13.8439ZM24.2147 14.8651H18.1824V25.9603H24.2147V14.8651V14.8651ZM17.3971 14.8651H7.60295V17.336H17.3971V14.8651V14.8651ZM6.81763 14.8651H0.785319V25.9603H6.81763V14.8651ZM7.60295 25.9577H17.3971V18.3598H7.60295V25.9577ZM13.2629 1.02116H11.8408V3.03704C11.8408 3.04233 11.8408 3.04762 11.8388 3.05556C11.8368 3.11111 11.8286 3.16931 11.8123 3.22222C11.7961 3.28042 11.7696 3.33333 11.7371 3.38095L9.63135 6.37302H15.389L13.3687 3.38624C13.3362 3.34127 13.3077 3.28571 13.2894 3.22751C13.2711 3.16931 13.2609 3.10317 13.2609 3.03704V1.02116H13.2629ZM19.1203 15.4365C19.1772 15.4365 19.2322 15.4524 19.281 15.4788L19.283 15.4815C19.3339 15.5079 19.3787 15.5503 19.4173 15.5979C19.456 15.6481 19.4865 15.709 19.5089 15.7751C19.5292 15.8386 19.5414 15.9101 19.5414 15.9841C19.5414 16.0582 19.5292 16.127 19.5089 16.1931C19.4865 16.2593 19.456 16.3201 19.4173 16.3704L19.4132 16.373C19.3746 16.4206 19.3298 16.4603 19.279 16.4868C19.2301 16.5132 19.1752 16.5291 19.1182 16.5291C19.0613 16.5291 19.0063 16.5132 18.9575 16.4868C18.9087 16.4603 18.8639 16.4206 18.8253 16.373L18.8192 16.3677C18.7805 16.3175 18.75 16.2566 18.7297 16.1905L18.7276 16.1878C18.7073 16.1243 18.6971 16.0556 18.6971 15.9815C18.6971 15.9074 18.7093 15.836 18.7297 15.7725C18.75 15.7063 18.7826 15.6455 18.8212 15.5952C18.8599 15.545 18.9067 15.5053 18.9575 15.4762L18.9596 15.4735C19.0125 15.4497 19.0653 15.4365 19.1203 15.4365ZM4.49422 1.53439C4.55119 1.53439 4.60612 1.55026 4.65495 1.57672C4.70581 1.60317 4.7526 1.6455 4.79126 1.69577C4.82992 1.74603 4.86247 1.80688 4.88281 1.87302C4.90316 1.93651 4.91536 2.00794 4.91536 2.08201C4.91536 2.15608 4.90316 2.22751 4.88281 2.29101C4.86247 2.35714 4.83195 2.41534 4.79533 2.46296L4.78923 2.4709C4.75057 2.51852 4.70581 2.5582 4.65495 2.58466C4.60612 2.61111 4.55119 2.62698 4.49422 2.62698C4.43726 2.62698 4.38436 2.61111 4.3335 2.58466C4.28263 2.5582 4.23584 2.51587 4.19718 2.46561L4.19312 2.46032C4.15649 2.41005 4.12598 2.35185 4.10563 2.28836C4.08529 2.22487 4.07308 2.15344 4.07308 2.07937C4.07308 2.00529 4.08529 1.93386 4.10563 1.87037L4.10767 1.86772C4.12801 1.80159 4.16056 1.74339 4.19718 1.69312C4.23584 1.64286 4.28263 1.60317 4.3335 1.57407L4.33553 1.57143C4.38639 1.55026 4.43929 1.53439 4.49422 1.53439ZM18.2658 1.02116H18.2393V7.03968H24.1414V1.02116H18.2658ZM20.1375 1.69048C20.1762 1.64286 20.2209 1.60317 20.2718 1.57672C20.3206 1.55026 20.3756 1.53439 20.4325 1.53439C20.4895 1.53439 20.5444 1.55026 20.5933 1.57672L20.5953 1.57937C20.6462 1.60582 20.6909 1.64815 20.7296 1.69577C20.7682 1.74603 20.7987 1.80688 20.8211 1.87302C20.8415 1.93651 20.8537 2.00794 20.8537 2.08201C20.8537 2.15608 20.8415 2.22751 20.8211 2.29101L20.8191 2.29365C20.7987 2.35714 20.7682 2.41534 20.7316 2.46296L20.7255 2.4709C20.6869 2.51852 20.6421 2.5582 20.5933 2.58466C20.5444 2.61111 20.4895 2.62698 20.4325 2.62698C20.3756 2.62698 20.3206 2.61111 20.2718 2.58466C20.2209 2.5582 20.1742 2.51587 20.1355 2.46561C20.0968 2.41534 20.0663 2.3545 20.0439 2.28836C20.0236 2.22487 20.0114 2.15344 20.0114 2.07937C20.0114 2.00529 20.0236 1.93651 20.0439 1.87037C20.0663 1.80423 20.0968 1.74339 20.1355 1.69312L20.1375 1.69048ZM5.78817 15.4365C5.84513 15.4365 5.90007 15.4524 5.94889 15.4788L5.95093 15.4815C6.00179 15.5106 6.04655 15.5503 6.08521 15.5979L6.08724 15.6032C6.12386 15.6534 6.15438 15.7116 6.17472 15.7751L6.17676 15.7778C6.1971 15.8413 6.20728 15.9101 6.20728 15.9841C6.20728 16.0582 6.19507 16.127 6.17472 16.1931C6.15234 16.2593 6.12183 16.3201 6.08317 16.3704L6.0791 16.373C6.04045 16.4206 5.99569 16.4603 5.94482 16.4868C5.896 16.5132 5.84106 16.5291 5.7841 16.5291C5.72713 16.5291 5.6722 16.5132 5.62337 16.4868C5.57251 16.4603 5.52572 16.418 5.48706 16.3677C5.44841 16.3175 5.41789 16.2566 5.39551 16.1905L5.39347 16.1878C5.37313 16.1243 5.36296 16.0556 5.36296 15.9815C5.36296 15.9074 5.37516 15.836 5.39551 15.7725C5.41585 15.7063 5.44841 15.6455 5.48706 15.5952C5.52572 15.545 5.57251 15.5053 5.62337 15.4762C5.6783 15.4524 5.7312 15.4365 5.78817 15.4365Z" fill="#FFAD23"/>
</g>
<defs>
<clipPath id="clip0_9_232">
<rect width="25" height="27" fill="white"/>
</clipPath>
</defs>
</svg>
