<svg width="26" height="10" viewBox="0 0 26 10" fill="none" xmlns="http://www.w3.org/2000/svg">
<g clip-path="url(#clip0_30_236)">
<path d="M11.4055 3.86237C11.3813 3.79757 11.3174 3.75032 11.2403 3.74047L7.54396 3.26989L5.89091 0.335781C5.85658 0.274564 5.78547 0.235901 5.70783 0.235901C5.63018 0.235901 5.55887 0.274564 5.52474 0.335781L3.87148 3.27007L0.175099 3.74065C0.0980657 3.7505 0.0343138 3.79757 0.00999818 3.86255C-0.0139088 3.92717 0.00591152 3.99841 0.0616945 4.04584L2.73662 6.32984L2.10503 9.555C2.09195 9.62212 2.12342 9.68996 2.18615 9.73006C2.24928 9.77051 2.33286 9.7757 2.40131 9.74366L5.70783 8.22112L9.01394 9.74366C9.04377 9.75744 9.07667 9.76424 9.10916 9.76424C9.15145 9.76424 9.19354 9.75279 9.2293 9.73006C9.29224 9.68996 9.32371 9.62212 9.31042 9.555L8.67903 6.33002L11.354 4.04584C11.4095 3.99805 11.4296 3.92699 11.4055 3.86237Z" fill="#FFAD23"/>
</g>
<g clip-path="url(#clip1_30_236)">
<path d="M25.7109 3.86237C25.6868 3.79757 25.6229 3.75032 25.5458 3.74047L21.8494 3.26989L20.1964 0.335781C20.1621 0.274564 20.091 0.235901 20.0133 0.235901C19.9357 0.235901 19.8643 0.274564 19.8302 0.335781L18.177 3.27007L14.4806 3.74065C14.4035 3.7505 14.3398 3.79757 14.3155 3.86255C14.2916 3.92717 14.3114 3.99841 14.3672 4.04584L17.0421 6.32984L16.4105 9.555C16.3974 9.62212 16.4289 9.68996 16.4916 9.73006C16.5548 9.77051 16.6383 9.7757 16.7068 9.74366L20.0133 8.22112L23.3194 9.74366C23.3492 9.75744 23.3821 9.76424 23.4146 9.76424C23.4569 9.76424 23.499 9.75279 23.5348 9.73006C23.5977 9.68996 23.6292 9.62212 23.6159 9.555L22.9845 6.33002L25.6594 4.04584C25.715 3.99805 25.735 3.92699 25.7109 3.86237Z" fill="#FFAD23"/>
</g>
<defs>
<clipPath id="clip0_30_236">
<rect width="11.4155" height="10" fill="white"/>
</clipPath>
<clipPath id="clip1_30_236">
<rect width="11.4155" height="10" fill="white" transform="translate(14.3055)"/>
</clipPath>
</defs>
</svg>
