<svg width="56" height="10" viewBox="0 0 56 10" fill="none" xmlns="http://www.w3.org/2000/svg">
<g clip-path="url(#clip0_30_234)">
<path d="M11.4055 3.86237C11.3813 3.79757 11.3174 3.75032 11.2403 3.74047L7.54396 3.26989L5.89091 0.335781C5.85658 0.274564 5.78547 0.235901 5.70783 0.235901C5.63018 0.235901 5.55887 0.274564 5.52474 0.335781L3.87148 3.27007L0.175099 3.74065C0.0980657 3.7505 0.0343138 3.79757 0.00999818 3.86255C-0.0139088 3.92717 0.00591152 3.99841 0.0616945 4.04584L2.73662 6.32984L2.10503 9.555C2.09195 9.62212 2.12342 9.68996 2.18615 9.73006C2.24928 9.77051 2.33286 9.7757 2.40131 9.74366L5.70783 8.22112L9.01394 9.74366C9.04377 9.75744 9.07667 9.76424 9.10916 9.76424C9.15145 9.76424 9.19354 9.75279 9.2293 9.73006C9.29224 9.68996 9.32371 9.62212 9.31042 9.555L8.67903 6.33002L11.354 4.04584C11.4095 3.99805 11.4296 3.92699 11.4055 3.86237Z" fill="#FFAD23"/>
</g>
<g clip-path="url(#clip1_30_234)">
<path d="M40.5511 3.86237C40.527 3.79757 40.463 3.75032 40.386 3.74047L36.6896 3.26989L35.0365 0.335781C35.0022 0.274564 34.9311 0.235901 34.8535 0.235901C34.7758 0.235901 34.7045 0.274564 34.6704 0.335781L33.0171 3.27007L29.3207 3.74065C29.2437 3.7505 29.1799 3.79757 29.1556 3.86255C29.1317 3.92717 29.1515 3.99841 29.2073 4.04584L31.8822 6.32984L31.2507 9.555C31.2376 9.62212 31.269 9.68996 31.3318 9.73006C31.3949 9.77051 31.4785 9.7757 31.5469 9.74366L34.8535 8.22112L38.1596 9.74366C38.1894 9.75744 38.2223 9.76424 38.2548 9.76424C38.2971 9.76424 38.3392 9.75279 38.3749 9.73006C38.4379 9.68996 38.4693 9.62212 38.4561 9.555L37.8247 6.33002L40.4996 4.04584C40.5552 3.99805 40.5752 3.92699 40.5511 3.86237Z" fill="#FFAD23"/>
</g>
<path d="M55.3912 3.86237C55.3671 3.79757 55.3031 3.75032 55.2261 3.74047L51.5297 3.26989L49.8767 0.335781C49.8423 0.274564 49.7712 0.235901 49.6936 0.235901C49.6159 0.235901 49.5446 0.274564 49.5105 0.335781L47.8572 3.27007L44.1608 3.74065C44.0838 3.7505 44.0201 3.79757 43.9957 3.86255C43.9718 3.92717 43.9917 3.99841 44.0474 4.04584L46.7224 6.32984L46.0908 9.555C46.0777 9.62212 46.1092 9.68996 46.1719 9.73006C46.235 9.77051 46.3186 9.7757 46.3871 9.74366L49.6936 8.22112L52.9997 9.74366C53.0295 9.75744 53.0624 9.76424 53.0949 9.76424C53.1372 9.76424 53.1793 9.75279 53.2151 9.73006C53.278 9.68996 53.3095 9.62212 53.2962 9.555L52.6648 6.33002L55.3397 4.04584C55.3953 3.99805 55.4153 3.92699 55.3912 3.86237Z" fill="#FFAD23"/>
<g clip-path="url(#clip2_30_234)">
<path d="M25.7109 3.86237C25.6868 3.79757 25.6229 3.75032 25.5458 3.74047L21.8494 3.26989L20.1964 0.335781C20.1621 0.274564 20.091 0.235901 20.0133 0.235901C19.9357 0.235901 19.8643 0.274564 19.8302 0.335781L18.177 3.27007L14.4806 3.74065C14.4035 3.7505 14.3398 3.79757 14.3155 3.86255C14.2916 3.92717 14.3114 3.99841 14.3672 4.04584L17.0421 6.32984L16.4105 9.555C16.3974 9.62212 16.4289 9.68996 16.4916 9.73006C16.5548 9.77051 16.6383 9.7757 16.7068 9.74366L20.0133 8.22112L23.3194 9.74366C23.3492 9.75744 23.3821 9.76424 23.4146 9.76424C23.4569 9.76424 23.499 9.75279 23.5348 9.73006C23.5977 9.68996 23.6292 9.62212 23.6159 9.555L22.9845 6.33002L25.6594 4.04584C25.715 3.99805 25.735 3.92699 25.7109 3.86237Z" fill="#FFAD23"/>
</g>
<defs>
<clipPath id="clip0_30_234">
<rect width="11.4155" height="10" fill="white"/>
</clipPath>
<clipPath id="clip1_30_234">
<rect width="11.4155" height="10" fill="white" transform="translate(29.1456)"/>
</clipPath>
<clipPath id="clip2_30_234">
<rect width="11.4155" height="10" fill="white" transform="translate(14.3055)"/>
</clipPath>
</defs>
</svg>
