<svg width="19" height="17" viewBox="0 0 19 17" fill="none" xmlns="http://www.w3.org/2000/svg">
<g clip-path="url(#clip0_7_86)">
<path d="M9.88654 3.81975C10.2814 3.39221 10.4961 2.82438 10.4846 2.23781C10.4732 1.65123 10.2365 1.09254 9.82521 0.681299C9.41395 0.270063 8.86081 0.0389686 8.28418 0.0374828C7.70756 0.035997 7.15327 0.264238 6.73997 0.673349L0.633934 6.99132C0.228996 7.41132 0.00215298 7.97618 0.00215298 8.56452C0.00215298 9.15286 0.228996 9.71773 0.633934 10.1377L6.61628 16.3283C6.81755 16.5462 7.05958 16.721 7.32817 16.8425C7.59676 16.9639 7.8865 17.0295 8.18036 17.0355C8.47422 17.0414 8.76628 16.9876 9.03941 16.8771C9.31253 16.7666 9.56121 16.6017 9.77083 16.3921C9.98046 16.1825 10.1468 15.9324 10.2601 15.6564C10.3734 15.3805 10.4314 15.0843 10.4307 14.7853C10.4299 14.4862 10.3705 14.1903 10.2558 13.915C10.1411 13.6397 9.97351 13.3904 9.76284 13.1819L7.43113 10.7623L16.8121 10.7167C17.3973 10.7117 17.9565 10.4703 18.3668 10.0458C18.7772 9.62123 19.0049 9.04823 19 8.45283C18.9951 7.85743 18.7579 7.2884 18.3406 6.87093C17.9233 6.45346 17.3602 6.22174 16.775 6.22675L7.52082 6.2708L9.88654 3.81975Z" fill="#FCD063"/>
</g>
<defs>
<clipPath id="clip0_7_86">
<rect width="19" height="17" fill="white" transform="matrix(-1 0 0 1 19 0)"/>
</clipPath>
</defs>
</svg>
